<svg width="95" height="51" viewBox="0 0 95 51" fill="none" xmlns="http://www.w3.org/2000/svg">
<path d="M85.4637 30.6875C85.1613 25.8309 83.032 21.2728 79.5091 17.9405C75.9862 14.6082 71.3343 12.7522 66.5 12.75C65.6106 12.75 64.7222 12.8119 63.8413 12.9352C61.8369 9.04393 58.8107 5.78046 55.0921 3.4998C51.3734 1.21915 47.1046 0.00865179 42.75 0C42.5057 0 42.2421 0.00159412 42.0736 0.0159379C37.2769 0.137873 32.6308 1.72656 28.7528 4.57078C24.8748 7.41499 21.9488 11.38 20.3638 15.9386C17.044 16.0007 13.8809 17.3706 11.5536 19.7544C9.22635 22.1381 7.92056 25.3454 7.9167 28.6875C7.91695 29.1754 7.94534 29.6628 8.00172 30.1474C5.61069 31.3348 3.59553 33.1692 2.18219 35.4449C0.76886 37.7206 0.0132325 40.3475 3.44808e-05 43.0313C-0.00552298 45.5565 0.660809 48.0372 1.9298 50.2156C2.06957 50.4545 2.26892 50.6526 2.50811 50.7902C2.7473 50.9278 3.01803 51.0001 3.29352 51H21.1534C21.5305 51 21.8953 50.8645 22.182 50.6178C22.4688 50.3712 22.6586 50.0296 22.7174 49.6546C23.1743 46.7507 24.6456 44.1063 26.8667 42.1969C29.0877 40.2875 31.9127 39.2384 34.8335 39.2384C37.7543 39.2384 40.5793 40.2875 42.8004 42.1969C45.0214 44.1063 46.4927 46.7507 46.9496 49.6546C47.0084 50.0296 47.1982 50.3712 47.485 50.6178C47.7717 50.8645 48.1365 51 48.5137 51H91.422C91.6767 51.0001 91.9276 50.9383 92.1535 50.8199C92.3793 50.7015 92.5735 50.5299 92.7194 50.3198C94.2074 48.1848 95.0039 45.6392 95 43.0313C94.9895 40.2021 94.0479 37.4562 92.3225 35.2229C90.5972 32.9895 88.1852 31.3946 85.4637 30.6875Z" fill="#9CD5F2"/>
</svg>

