<svg width="16" height="15" viewBox="0 0 16 15" fill="none" xmlns="http://www.w3.org/2000/svg">
<path d="M0.926701 14.8179C0.12988 14.8179 -0.221379 14.2391 0.145453 13.5318L6.89767 0.530457C7.2645 -0.176819 7.8658 -0.176819 8.23306 0.530457L14.9853 13.5318C15.353 14.2391 15.0013 14.8179 14.204 14.8179H0.926701Z" fill="#FFCC4D"/>
<path d="M6.60049 4.28874C6.60049 3.72552 7.0162 3.37685 7.56602 3.37685C8.10285 3.37685 8.53198 3.73893 8.53198 4.28874V9.45294C8.53198 10.0028 8.10285 10.3648 7.56602 10.3648C7.0162 10.3648 6.60049 10.0157 6.60049 9.45294V4.28874ZM6.51959 12.202C6.51959 11.6254 6.98938 11.156 7.56602 11.156C8.14265 11.156 8.61244 11.6254 8.61244 12.202C8.61244 12.7791 8.14265 13.2484 7.56602 13.2484C6.98938 13.2484 6.51959 12.7791 6.51959 12.202Z" fill="#231F20"/>
</svg>
